<svg width="17" height="17" viewBox="0 0 17 17" fill="none" xmlns="http://www.w3.org/2000/svg">
<path d="M15.9032 15.4301L11.8597 11.4592C12.9186 10.3111 13.5692 8.79264 13.5692 7.12178C13.5686 3.5475 10.6187 0.650391 6.97958 0.650391C3.34041 0.650391 0.390503 3.5475 0.390503 7.12178C0.390503 10.6961 3.34041 13.5932 6.97958 13.5932C8.55195 13.5932 9.99409 13.0504 11.1269 12.148L15.1861 16.1346C15.3838 16.3291 15.7049 16.3291 15.9027 16.1346C16.101 15.9402 16.101 15.6246 15.9032 15.4301ZM6.97958 12.5975C3.90044 12.5975 1.40432 10.146 1.40432 7.12178C1.40432 4.09761 3.90044 1.64605 6.97958 1.64605C10.0587 1.64605 12.5548 4.09761 12.5548 7.12178C12.5548 10.146 10.0587 12.5975 6.97958 12.5975Z" fill="white"/>
</svg>
